<svg id="visual" viewBox="0 125 100 410" width="960" height="540" xmlns="http://www.w3.org/2000/svg" xmlns:xlink="http://www.w3.org/1999/xlink" version="1.1"><rect x="0" y="0" width="960" height="540" fill="#fafafa"></rect><defs><linearGradient id="grad1_0" x1="43.8%" y1="0%" x2="100%" y2="100%"><stop offset="14.444444444444446%" stop-color="#659e38" stop-opacity="1"></stop><stop offset="85.55555555555554%" stop-color="#659e38" stop-opacity="1"></stop></linearGradient></defs><defs><linearGradient id="grad1_1" x1="43.8%" y1="0%" x2="100%" y2="100%"><stop offset="14.444444444444446%" stop-color="#659e38" stop-opacity="1"></stop><stop offset="85.55555555555554%" stop-color="#8cb568" stop-opacity="1"></stop></linearGradient></defs><defs><linearGradient id="grad1_2" x1="43.8%" y1="0%" x2="100%" y2="100%"><stop offset="14.444444444444446%" stop-color="#b1cc98" stop-opacity="1"></stop><stop offset="85.55555555555554%" stop-color="#8cb568" stop-opacity="1"></stop></linearGradient></defs><defs><linearGradient id="grad1_3" x1="43.8%" y1="0%" x2="100%" y2="100%"><stop offset="14.444444444444446%" stop-color="#b1cc98" stop-opacity="1"></stop><stop offset="85.55555555555554%" stop-color="#d6e3c8" stop-opacity="1"></stop></linearGradient></defs><defs><linearGradient id="grad1_4" x1="43.8%" y1="0%" x2="100%" y2="100%"><stop offset="14.444444444444446%" stop-color="#fafafa" stop-opacity="1"></stop><stop offset="85.55555555555554%" stop-color="#d6e3c8" stop-opacity="1"></stop></linearGradient></defs><defs><linearGradient id="grad2_0" x1="0%" y1="0%" x2="56.3%" y2="100%"><stop offset="14.444444444444446%" stop-color="#659e38" stop-opacity="1"></stop><stop offset="85.55555555555554%" stop-color="#659e38" stop-opacity="1"></stop></linearGradient></defs><defs><linearGradient id="grad2_1" x1="0%" y1="0%" x2="56.3%" y2="100%"><stop offset="14.444444444444446%" stop-color="#8cb568" stop-opacity="1"></stop><stop offset="85.55555555555554%" stop-color="#659e38" stop-opacity="1"></stop></linearGradient></defs><defs><linearGradient id="grad2_2" x1="0%" y1="0%" x2="56.3%" y2="100%"><stop offset="14.444444444444446%" stop-color="#8cb568" stop-opacity="1"></stop><stop offset="85.55555555555554%" stop-color="#b1cc98" stop-opacity="1"></stop></linearGradient></defs><defs><linearGradient id="grad2_3" x1="0%" y1="0%" x2="56.3%" y2="100%"><stop offset="14.444444444444446%" stop-color="#d6e3c8" stop-opacity="1"></stop><stop offset="85.55555555555554%" stop-color="#b1cc98" stop-opacity="1"></stop></linearGradient></defs><defs><linearGradient id="grad2_4" x1="0%" y1="0%" x2="56.3%" y2="100%"><stop offset="14.444444444444446%" stop-color="#d6e3c8" stop-opacity="1"></stop><stop offset="85.55555555555554%" stop-color="#fafafa" stop-opacity="1"></stop></linearGradient></defs><g transform="translate(960, 0)"><path d="M0 371C-38.9 367.2 -77.8 363.5 -114.6 352.8C-151.4 342.2 -186.1 324.6 -221 304.2C-255.9 283.8 -291 260.4 -316.3 229.8C-341.6 199.2 -357.1 161.3 -374.7 121.8C-392.4 82.2 -412.2 41.1 -432 0L0 0Z" fill="#e8eee1"></path><path d="M0 296.8C-31.1 293.8 -62.3 290.8 -91.7 282.3C-121.2 273.7 -148.9 259.7 -176.8 243.4C-204.7 227 -232.8 208.4 -253.1 183.9C-273.3 159.4 -285.7 129 -299.8 97.4C-313.9 65.8 -329.7 32.9 -345.6 0L0 0Z" fill="#c3d7b0"></path><path d="M0 222.6C-23.4 220.3 -46.7 218.1 -68.8 211.7C-90.9 205.3 -111.7 194.8 -132.6 182.5C-153.5 170.3 -174.6 156.3 -189.8 137.9C-205 119.5 -214.2 96.8 -224.8 73.1C-235.4 49.3 -247.3 24.7 -259.2 0L0 0Z" fill="#9fc080"></path><path d="M0 148.4C-15.6 146.9 -31.1 145.4 -45.9 141.1C-60.6 136.9 -74.4 129.9 -88.4 121.7C-102.4 113.5 -116.4 104.2 -126.5 91.9C-136.6 79.7 -142.8 64.5 -149.9 48.7C-156.9 32.9 -164.9 16.4 -172.8 0L0 0Z" fill="#79a951"></path><path d="M0 74.2C-7.8 73.4 -15.6 72.7 -22.9 70.6C-30.3 68.4 -37.2 64.9 -44.2 60.8C-51.2 56.8 -58.2 52.1 -63.3 46C-68.3 39.8 -71.4 32.3 -74.9 24.4C-78.5 16.4 -82.4 8.2 -86.4 0L0 0Z" fill="#659e38"></path></g><g transform="translate(0, 540)"><path d="M0 -349C48.6 -383.4 97.1 -417.7 132 -406.1C166.8 -394.5 187.9 -336.8 223.4 -307.4C258.8 -278 308.5 -276.8 347.1 -252.2C385.6 -227.5 412.9 -179.4 410.9 -133.5C408.8 -87.6 377.4 -43.8 346 0L0 0Z" fill="#e8eee1"></path><path d="M0 -279.2C38.8 -306.7 77.7 -334.2 105.6 -324.9C133.4 -315.6 150.3 -269.5 178.7 -245.9C207 -222.4 246.8 -221.4 277.7 -201.7C308.5 -182 330.3 -143.5 328.7 -106.8C327 -70 301.9 -35 276.8 0L0 0Z" fill="#c3d7b0"></path><path d="M0 -209.4C29.1 -230 58.3 -250.6 79.2 -243.7C100.1 -236.7 112.8 -202.1 134 -184.5C155.3 -166.8 185.1 -166.1 208.2 -151.3C231.4 -136.5 247.7 -107.7 246.5 -80.1C245.3 -52.5 226.4 -26.3 207.6 0L0 0Z" fill="#9fc080"></path><path d="M0 -139.6C19.4 -153.3 38.8 -167.1 52.8 -162.4C66.7 -157.8 75.2 -134.7 89.3 -123C103.5 -111.2 123.4 -110.7 138.8 -100.9C154.2 -91 165.2 -71.8 164.3 -53.4C163.5 -35 151 -17.5 138.4 0L0 0Z" fill="#79a951"></path><path d="M0 -69.8C9.7 -76.7 19.4 -83.5 26.4 -81.2C33.4 -78.9 37.6 -67.4 44.7 -61.5C51.8 -55.6 61.7 -55.4 69.4 -50.4C77.1 -45.5 82.6 -35.9 82.2 -26.7C81.8 -17.5 75.5 -8.8 69.2 0L0 0Z" fill="#659e38"></path></g></svg>