<svg id="visual" viewBox="0 0 800 800" width="800" height="800" xmlns="http://www.w3.org/2000/svg" xmlns:xlink="http://www.w3.org/1999/xlink" version="1.1"><g transform="translate(424.7559350384653 422.1775643955657)"><path d="M158.4 -241.9C197.7 -189.5 216.8 -133.1 235.4 -76.4C253.9 -19.7 272 37.3 269 100.1C266.1 162.9 242.1 231.5 193.7 269.3C145.4 307.1 72.7 314 2.8 310.1C-67 306.2 -134 291.5 -197.4 258.6C-260.8 225.7 -320.6 174.6 -318.8 118.2C-317 61.8 -253.6 0 -227.6 -72.1C-201.7 -144.2 -213.1 -226.6 -181.4 -281.5C-149.7 -336.4 -74.8 -363.7 -7.6 -353.2C59.6 -342.6 119.1 -294.3 158.4 -241.9" fill="#DAF2C6"></path></g></svg>