<svg width="542" height="538" viewBox="0 0 542 538" fill="none" xmlns="http://www.w3.org/2000/svg">
<path d="M0 78.2357C64.0098 32.9283 127.888 -12.2473 173.854 3.03076C219.688 18.3088 247.478 94.304 294.234 133.026C340.859 171.748 406.317 173.328 457.156 205.728C507.863 238.26 543.819 301.611 541.185 362.065C538.419 422.519 497.063 480.206 455.707 537.894H0V78.2357Z" fill="#E8EEE1"/>
<path d="M0 170.167C51.1024 133.948 102.337 97.7281 139.083 109.977C175.698 122.226 197.956 182.943 235.361 214.026C272.634 244.977 325.054 246.294 365.751 272.24C406.317 298.187 435.029 348.894 432.922 397.231C430.683 445.699 397.624 491.796 364.566 537.894H0V170.167Z" fill="#C3D7B0"/>
<path d="M0 262.099C38.3268 234.968 76.7854 207.836 104.312 216.924C131.839 226.143 148.566 271.714 176.488 294.894C204.541 318.207 243.79 319.129 274.215 338.621C304.771 358.114 326.239 396.046 324.659 432.397C323.078 468.748 298.185 503.255 273.424 537.894H0V262.099Z" fill="#9FC080"/>
<path d="M0 354.031C25.5512 335.987 51.1024 317.812 69.5415 324.002C87.8488 330.06 99.0439 360.485 117.615 375.895C136.317 391.436 162.527 392.095 182.81 405.002C203.093 418.041 217.581 443.329 216.395 467.563C215.341 491.797 198.878 514.846 182.283 537.895H0V354.031Z" fill="#79A951"/>
<path d="M0 445.963C12.7756 436.875 25.5512 427.919 34.7707 430.948C43.9902 433.978 49.522 449.124 58.8732 456.895C68.2244 464.665 81.2634 464.929 91.4049 471.514C101.546 477.968 108.79 490.612 108.263 502.729C107.737 514.846 99.439 526.304 91.1415 537.895H0V445.963Z" fill="#659E38"/>
</svg>
