<svg width="542" height="538" viewBox="0 0 542 538" fill="none" xmlns="http://www.w3.org/2000/svg">
<path d="M541.321 459.658C477.311 504.966 413.433 550.141 367.468 534.863C321.633 519.585 293.843 443.59 247.087 404.868C200.463 366.146 135.004 364.566 84.1651 332.166C33.4578 299.634 -2.49831 236.283 0.135835 175.829C2.90169 115.375 44.2578 57.6876 85.6139 -0.000181848H541.321L541.321 459.658Z" fill="#E8EEE1"/>
<path d="M541.321 367.727C490.219 403.946 438.985 440.166 402.238 427.917C365.624 415.668 343.365 354.951 305.96 323.868C268.687 292.917 216.267 291.6 175.57 265.654C135.004 239.707 106.292 189 108.399 140.663C110.638 92.1952 143.697 46.0976 176.755 4.29847e-05L541.321 4.29847e-05V367.727Z" fill="#C3D7B0"/>
<path d="M541.321 275.795C502.994 302.926 464.536 330.058 437.009 320.97C409.482 311.751 392.755 266.18 364.833 243C336.78 219.687 297.531 218.766 267.107 199.273C236.55 179.78 215.082 141.848 216.663 105.497C218.243 69.146 243.136 34.6387 267.897 -0.000367095L541.321 -0.000367095V275.795Z" fill="#9FC080"/>
</svg>
