<svg xmlns="http://www.w3.org/2000/svg" width="375" viewBox="0 0 375 375" height="375" version="1.0"><defs><clipPath id="a"><path d="M 79 80 L 96 80 L 96 124 L 79 124 Z M 79 80"/></clipPath><clipPath id="b"><path d="M -5.976562 116.996094 L 135.589844 63.046875 L 193.011719 213.726562 L 51.441406 267.675781 Z M -5.976562 116.996094"/></clipPath><clipPath id="c"><path d="M -5.976562 116.996094 L 135.589844 63.046875 L 193.011719 213.726562 L 51.441406 267.675781 Z M -5.976562 116.996094"/></clipPath><clipPath id="d"><path d="M 104 90 L 146 90 L 146 118 L 104 118 Z M 104 90"/></clipPath><clipPath id="e"><path d="M -5.976562 116.996094 L 135.589844 63.046875 L 193.011719 213.726562 L 51.441406 267.675781 Z M -5.976562 116.996094"/></clipPath><clipPath id="f"><path d="M -5.976562 116.996094 L 135.589844 63.046875 L 193.011719 213.726562 L 51.441406 267.675781 Z M -5.976562 116.996094"/></clipPath><clipPath id="g"><path d="M 88 125 L 138 125 L 138 145 L 88 145 Z M 88 125"/></clipPath><clipPath id="h"><path d="M -5.976562 116.996094 L 135.589844 63.046875 L 193.011719 213.726562 L 51.441406 267.675781 Z M -5.976562 116.996094"/></clipPath><clipPath id="i"><path d="M -5.976562 116.996094 L 135.589844 63.046875 L 193.011719 213.726562 L 51.441406 267.675781 Z M -5.976562 116.996094"/></clipPath><clipPath id="j"><path d="M 79 147 L 122 147 L 122 165 L 79 165 Z M 79 147"/></clipPath><clipPath id="k"><path d="M -5.976562 116.996094 L 135.589844 63.046875 L 193.011719 213.726562 L 51.441406 267.675781 Z M -5.976562 116.996094"/></clipPath><clipPath id="l"><path d="M -5.976562 116.996094 L 135.589844 63.046875 L 193.011719 213.726562 L 51.441406 267.675781 Z M -5.976562 116.996094"/></clipPath><clipPath id="m"><path d="M 72 169 L 121 169 L 121 187 L 72 187 Z M 72 169"/></clipPath><clipPath id="n"><path d="M -5.976562 116.996094 L 135.589844 63.046875 L 193.011719 213.726562 L 51.441406 267.675781 Z M -5.976562 116.996094"/></clipPath><clipPath id="o"><path d="M -5.976562 116.996094 L 135.589844 63.046875 L 193.011719 213.726562 L 51.441406 267.675781 Z M -5.976562 116.996094"/></clipPath><clipPath id="p"><path d="M 64 188 L 111 188 L 111 212 L 64 212 Z M 64 188"/></clipPath><clipPath id="q"><path d="M -5.976562 116.996094 L 135.589844 63.046875 L 193.011719 213.726562 L 51.441406 267.675781 Z M -5.976562 116.996094"/></clipPath><clipPath id="r"><path d="M -5.976562 116.996094 L 135.589844 63.046875 L 193.011719 213.726562 L 51.441406 267.675781 Z M -5.976562 116.996094"/></clipPath><clipPath id="s"><path d="M 50 98 L 80 98 L 80 138 L 50 138 Z M 50 98"/></clipPath><clipPath id="t"><path d="M -5.976562 116.996094 L 135.589844 63.046875 L 193.011719 213.726562 L 51.441406 267.675781 Z M -5.976562 116.996094"/></clipPath><clipPath id="u"><path d="M -5.976562 116.996094 L 135.589844 63.046875 L 193.011719 213.726562 L 51.441406 267.675781 Z M -5.976562 116.996094"/></clipPath><clipPath id="v"><path d="M 32 120 L 66 120 L 66 158 L 32 158 Z M 32 120"/></clipPath><clipPath id="w"><path d="M -5.976562 116.996094 L 135.589844 63.046875 L 193.011719 213.726562 L 51.441406 267.675781 Z M -5.976562 116.996094"/></clipPath><clipPath id="x"><path d="M -5.976562 116.996094 L 135.589844 63.046875 L 193.011719 213.726562 L 51.441406 267.675781 Z M -5.976562 116.996094"/></clipPath><clipPath id="y"><path d="M 19 145 L 55 145 L 55 180 L 19 180 Z M 19 145"/></clipPath><clipPath id="z"><path d="M -5.976562 116.996094 L 135.589844 63.046875 L 193.011719 213.726562 L 51.441406 267.675781 Z M -5.976562 116.996094"/></clipPath><clipPath id="A"><path d="M -5.976562 116.996094 L 135.589844 63.046875 L 193.011719 213.726562 L 51.441406 267.675781 Z M -5.976562 116.996094"/></clipPath><clipPath id="B"><path d="M 13 168 L 48 168 L 48 208 L 13 208 Z M 13 168"/></clipPath><clipPath id="C"><path d="M -5.976562 116.996094 L 135.589844 63.046875 L 193.011719 213.726562 L 51.441406 267.675781 Z M -5.976562 116.996094"/></clipPath><clipPath id="D"><path d="M -5.976562 116.996094 L 135.589844 63.046875 L 193.011719 213.726562 L 51.441406 267.675781 Z M -5.976562 116.996094"/></clipPath><clipPath id="E"><path d="M 53 92 L 141 92 L 141 266 L 53 266 Z M 53 92"/></clipPath><clipPath id="F"><path d="M -5.976562 116.996094 L 135.589844 63.046875 L 193.011719 213.726562 L 51.441406 267.675781 Z M -5.976562 116.996094"/></clipPath><clipPath id="G"><path d="M -5.976562 116.996094 L 135.589844 63.046875 L 193.011719 213.726562 L 51.441406 267.675781 Z M -5.976562 116.996094"/></clipPath><clipPath id="H"><path d="M 86 90 L 89 90 L 89 134 L 86 134 Z M 86 90"/></clipPath><clipPath id="I"><path d="M -5.976562 116.996094 L 135.589844 63.046875 L 193.011719 213.726562 L 51.441406 267.675781 Z M -5.976562 116.996094"/></clipPath><clipPath id="J"><path d="M -5.976562 116.996094 L 135.589844 63.046875 L 193.011719 213.726562 L 51.441406 267.675781 Z M -5.976562 116.996094"/></clipPath><clipPath id="K"><path d="M 57 105 L 81 105 L 81 146 L 57 146 Z M 57 105"/></clipPath><clipPath id="L"><path d="M -5.976562 116.996094 L 135.589844 63.046875 L 193.011719 213.726562 L 51.441406 267.675781 Z M -5.976562 116.996094"/></clipPath><clipPath id="M"><path d="M -5.976562 116.996094 L 135.589844 63.046875 L 193.011719 213.726562 L 51.441406 267.675781 Z M -5.976562 116.996094"/></clipPath><clipPath id="N"><path d="M 38 127 L 69 127 L 69 168 L 38 168 Z M 38 127"/></clipPath><clipPath id="O"><path d="M -5.976562 116.996094 L 135.589844 63.046875 L 193.011719 213.726562 L 51.441406 267.675781 Z M -5.976562 116.996094"/></clipPath><clipPath id="P"><path d="M -5.976562 116.996094 L 135.589844 63.046875 L 193.011719 213.726562 L 51.441406 267.675781 Z M -5.976562 116.996094"/></clipPath><clipPath id="Q"><path d="M 26 150 L 61 150 L 61 191 L 26 191 Z M 26 150"/></clipPath><clipPath id="R"><path d="M -5.976562 116.996094 L 135.589844 63.046875 L 193.011719 213.726562 L 51.441406 267.675781 Z M -5.976562 116.996094"/></clipPath><clipPath id="S"><path d="M -5.976562 116.996094 L 135.589844 63.046875 L 193.011719 213.726562 L 51.441406 267.675781 Z M -5.976562 116.996094"/></clipPath><clipPath id="T"><path d="M 21 174 L 56 174 L 56 219 L 21 219 Z M 21 174"/></clipPath><clipPath id="U"><path d="M -5.976562 116.996094 L 135.589844 63.046875 L 193.011719 213.726562 L 51.441406 267.675781 Z M -5.976562 116.996094"/></clipPath><clipPath id="V"><path d="M -5.976562 116.996094 L 135.589844 63.046875 L 193.011719 213.726562 L 51.441406 267.675781 Z M -5.976562 116.996094"/></clipPath><clipPath id="W"><path d="M 54 190 L 102 190 L 102 216 L 54 216 Z M 54 190"/></clipPath><clipPath id="X"><path d="M -5.976562 116.996094 L 135.589844 63.046875 L 193.011719 213.726562 L 51.441406 267.675781 Z M -5.976562 116.996094"/></clipPath><clipPath id="Y"><path d="M -5.976562 116.996094 L 135.589844 63.046875 L 193.011719 213.726562 L 51.441406 267.675781 Z M -5.976562 116.996094"/></clipPath><clipPath id="Z"><path d="M 60 176 L 111 176 L 111 187 L 60 187 Z M 60 176"/></clipPath><clipPath id="aa"><path d="M -5.976562 116.996094 L 135.589844 63.046875 L 193.011719 213.726562 L 51.441406 267.675781 Z M -5.976562 116.996094"/></clipPath><clipPath id="ab"><path d="M -5.976562 116.996094 L 135.589844 63.046875 L 193.011719 213.726562 L 51.441406 267.675781 Z M -5.976562 116.996094"/></clipPath><clipPath id="ac"><path d="M 70 151 L 116 151 L 116 164 L 70 164 Z M 70 151"/></clipPath><clipPath id="ad"><path d="M -5.976562 116.996094 L 135.589844 63.046875 L 193.011719 213.726562 L 51.441406 267.675781 Z M -5.976562 116.996094"/></clipPath><clipPath id="ae"><path d="M -5.976562 116.996094 L 135.589844 63.046875 L 193.011719 213.726562 L 51.441406 267.675781 Z M -5.976562 116.996094"/></clipPath><clipPath id="af"><path d="M 81 130 L 131 130 L 131 143 L 81 143 Z M 81 130"/></clipPath><clipPath id="ag"><path d="M -5.976562 116.996094 L 135.589844 63.046875 L 193.011719 213.726562 L 51.441406 267.675781 Z M -5.976562 116.996094"/></clipPath><clipPath id="ah"><path d="M -5.976562 116.996094 L 135.589844 63.046875 L 193.011719 213.726562 L 51.441406 267.675781 Z M -5.976562 116.996094"/></clipPath></defs><g clip-path="url(#a)"><g clip-path="url(#b)"><g clip-path="url(#c)"><path fill="#8EB69B" d="M 90.511719 80.230469 C 90.511719 80.230469 94.210938 92.195312 95.546875 105.917969 C 96.882812 119.636719 89.625 123.210938 86.320312 123.320312 C 83.019531 123.433594 71.5 111.992188 90.511719 80.230469"/></g></g></g><g clip-path="url(#d)"><g clip-path="url(#e)"><g clip-path="url(#f)"><path fill="#235347" d="M 145.96875 90.472656 C 145.96875 90.472656 134.21875 89.535156 119.230469 96.261719 C 104.242188 102.984375 102.445312 112.066406 105.824219 116.0625 C 109.199219 120.0625 125.878906 116.179688 145.96875 90.472656"/></g></g></g><g clip-path="url(#g)"><g clip-path="url(#h)"><g clip-path="url(#i)"><path fill="#8EB69B" d="M 137.125 130.058594 C 137.125 130.058594 126.230469 123.324219 108.039062 126.828125 C 89.847656 130.332031 88.226562 136.917969 88.996094 139.707031 C 90.183594 143.996094 99.246094 151.027344 137.125 130.058594"/></g></g></g><g clip-path="url(#j)"><g clip-path="url(#k)"><g clip-path="url(#l)"><path fill="#8EB69B" d="M 121.492188 151.457031 C 121.492188 151.457031 112.355469 145.761719 98.902344 147.613281 C 82.371094 149.890625 78.988281 156.640625 79.367188 159.503906 C 79.933594 163.800781 83.613281 172.425781 121.492188 151.457031"/></g></g></g><g clip-path="url(#m)"><g clip-path="url(#n)"><g clip-path="url(#o)"><path fill="#235347" d="M 120.039062 177.890625 C 120.039062 177.890625 106.054688 168.738281 91.976562 169.535156 C 75.316406 170.480469 72.066406 178.558594 72.445312 181.425781 C 72.90625 184.957031 78.539062 190.300781 97.179688 183.847656 C 102.175781 182.121094 112.703125 178.953125 120.039062 177.890625"/></g></g></g><g clip-path="url(#p)"><g clip-path="url(#q)"><g clip-path="url(#r)"><path fill="#8EB69B" d="M 110.183594 189.625 C 110.183594 189.625 95.199219 185.464844 79.648438 191.007812 C 63.933594 196.609375 63.472656 205.714844 64.707031 208.328125 C 66.234375 211.550781 73.226562 214.910156 88.984375 203.035156 C 93.210938 199.851562 103.53125 192.886719 110.183594 189.625"/></g></g></g><g clip-path="url(#s)"><g clip-path="url(#t)"><g clip-path="url(#u)"><path fill="#8EB69B" d="M 50.738281 98.421875 C 50.738281 98.421875 61.839844 100.984375 72.019531 115.40625 C 82.199219 129.828125 79.550781 135.429688 77.460938 136.839844 C 74.234375 139.003906 64.191406 137.855469 50.738281 98.421875"/></g></g></g><g clip-path="url(#v)"><g clip-path="url(#w)"><g clip-path="url(#x)"><path fill="#235347" d="M 32.664062 120.257812 C 32.664062 120.257812 47.777344 125.351562 57.550781 135.144531 C 69.355469 146.976562 65.492188 154.421875 63.296875 156.292969 C 60.003906 159.101562 46.734375 161.285156 32.664062 120.257812"/></g></g></g><g clip-path="url(#y)"><g clip-path="url(#z)"><g clip-path="url(#A)"><path fill="#8EB69B" d="M 19.742188 145.386719 C 19.742188 145.386719 36.503906 149.246094 46.144531 158.066406 C 58.46875 169.34375 53.753906 176.5625 51.558594 178.4375 C 48.851562 180.742188 40.871094 182.964844 31.363281 165.640625 C 28.8125 160.996094 24.472656 151.113281 19.742188 145.386719"/></g></g></g><g clip-path="url(#B)"><g clip-path="url(#C)"><g clip-path="url(#D)"><path fill="#235347" d="M 13.734375 168.425781 C 13.734375 168.425781 28.878906 171.957031 39.898438 184.285156 C 51.039062 196.746094 47.105469 204.96875 44.773438 206.667969 C 41.902344 208.765625 34.160156 208.363281 25.972656 190.375 C 23.777344 185.554688 18.027344 174.484375 13.734375 168.425781"/></g></g></g><g clip-path="url(#E)"><g clip-path="url(#F)"><g clip-path="url(#G)"><path fill="#051F20" d="M 56.535156 265.589844 C 55.980469 263.453125 55.574219 261.339844 55.199219 259.199219 C 54.832031 257.0625 54.519531 254.917969 54.269531 252.769531 C 53.742188 248.472656 53.441406 244.152344 53.300781 239.832031 C 53.164062 235.507812 53.207031 231.179688 53.414062 226.863281 C 53.621094 222.546875 54 218.234375 54.570312 213.953125 C 55.679688 205.382812 57.46875 196.902344 59.941406 188.625 L 60.398438 187.074219 C 60.554688 186.554688 60.730469 186.042969 60.894531 185.53125 L 61.898438 182.453125 L 62.988281 179.40625 L 63.535156 177.882812 C 63.722656 177.375 63.929688 176.878906 64.125 176.375 L 65.3125 173.363281 C 65.71875 172.363281 66.152344 171.375 66.570312 170.382812 L 67.203125 168.894531 L 67.867188 167.421875 C 68.3125 166.4375 68.746094 165.449219 69.207031 164.476562 C 72.871094 156.667969 77.023438 149.078125 81.863281 141.9375 C 86.679688 134.789062 92.148438 128.066406 98.273438 122.003906 C 104.382812 115.925781 111.125 110.5 118.28125 105.71875 C 125.433594 100.925781 132.992188 96.765625 140.71875 92.984375 C 133.015625 96.8125 125.488281 101.019531 118.371094 105.851562 C 111.253906 110.671875 104.558594 116.132812 98.5 122.230469 C 92.429688 128.320312 87.019531 135.050781 82.265625 142.210938 C 77.488281 149.355469 73.394531 156.945312 69.792969 164.746094 C 66.234375 172.570312 63.074219 180.589844 60.726562 188.859375 C 58.324219 197.105469 56.605469 205.550781 55.558594 214.078125 C 55.023438 218.339844 54.675781 222.621094 54.5 226.914062 C 54.320312 231.203125 54.308594 235.5 54.472656 239.789062 C 54.644531 244.078125 54.972656 248.363281 55.519531 252.617188 C 55.785156 254.746094 56.109375 256.867188 56.488281 258.972656 C 56.867188 261.078125 57.292969 263.195312 57.835938 265.230469 L 56.535156 265.589844"/></g></g></g><g clip-path="url(#H)"><g clip-path="url(#I)"><g clip-path="url(#J)"><path fill="#051F20" d="M 87.785156 90.980469 C 87.390625 94.492188 87.117188 98.011719 86.910156 101.539062 C 86.707031 105.0625 86.582031 108.59375 86.597656 112.121094 C 86.609375 115.648438 86.695312 119.179688 87.042969 122.683594 C 87.386719 126.1875 87.882812 129.6875 88.886719 133.042969 L 88.238281 133.234375 C 87.269531 129.792969 86.832031 126.257812 86.539062 122.730469 C 86.25 119.195312 86.214844 115.652344 86.257812 112.117188 C 86.300781 108.582031 86.484375 105.050781 86.742188 101.527344 C 87.003906 98.003906 87.332031 94.484375 87.785156 90.980469"/></g></g></g><g clip-path="url(#K)"><g clip-path="url(#L)"><g clip-path="url(#M)"><path fill="#051F20" d="M 57.046875 105.488281 C 59.425781 108.496094 61.699219 111.589844 63.917969 114.726562 C 66.125 117.863281 68.28125 121.046875 70.304688 124.3125 C 72.320312 127.578125 74.296875 130.882812 76.023438 134.320312 C 77.753906 137.753906 79.347656 141.273438 80.492188 144.976562 L 79.839844 145.167969 C 78.773438 141.507812 77.242188 137.988281 75.570312 134.550781 C 73.902344 131.101562 71.984375 127.777344 70.019531 124.488281 C 68.042969 121.199219 65.941406 117.992188 63.78125 114.824219 C 61.609375 111.65625 59.382812 108.53125 57.046875 105.488281"/></g></g></g><g clip-path="url(#N)"><g clip-path="url(#O)"><g clip-path="url(#P)"><path fill="#051F20" d="M 38.628906 127.800781 C 41.726562 130.523438 44.652344 133.441406 47.46875 136.457031 C 50.289062 139.46875 52.964844 142.617188 55.519531 145.863281 C 56.820312 147.472656 58.027344 149.148438 59.253906 150.8125 C 59.855469 151.652344 60.429688 152.511719 61.019531 153.363281 L 61.898438 154.640625 L 62.734375 155.949219 L 64.394531 158.570312 L 65.953125 161.253906 L 66.730469 162.601562 L 67.449219 163.976562 L 68.886719 166.734375 L 67.976562 167.171875 L 66.605469 164.414062 L 65.921875 163.035156 L 65.179688 161.6875 L 63.6875 158.992188 L 62.089844 156.351562 L 61.289062 155.035156 L 60.441406 153.75 C 59.871094 152.890625 59.316406 152.023438 58.738281 151.175781 C 57.546875 149.496094 56.378906 147.804688 55.121094 146.171875 C 52.640625 142.886719 50.035156 139.691406 47.28125 136.628906 C 44.53125 133.558594 41.667969 130.585938 38.628906 127.800781"/></g></g></g><g clip-path="url(#Q)"><g clip-path="url(#R)"><g clip-path="url(#S)"><path fill="#051F20" d="M 26.617188 150.59375 C 29.949219 153.367188 33.148438 156.296875 36.265625 159.308594 C 39.378906 162.332031 42.386719 165.460938 45.289062 168.691406 C 48.164062 171.945312 50.90625 175.320312 53.488281 178.820312 C 56.015625 182.363281 58.355469 186.046875 60.367188 189.929688 L 59.457031 190.378906 C 57.550781 186.519531 55.3125 182.824219 52.871094 179.261719 C 50.375 175.734375 47.710938 172.320312 44.90625 169.027344 C 42.078125 165.75 39.136719 162.570312 36.089844 159.492188 C 33.035156 156.421875 29.894531 153.429688 26.617188 150.59375"/></g></g></g><g clip-path="url(#T)"><g clip-path="url(#U)"><g clip-path="url(#V)"><path fill="#051F20" d="M 21.253906 174.519531 C 24.5625 177.734375 27.730469 181.101562 30.808594 184.546875 C 33.878906 187.996094 36.84375 191.550781 39.695312 195.1875 C 42.566406 198.8125 45.28125 202.5625 47.875 206.398438 L 49.796875 209.292969 L 51.632812 212.246094 L 52.546875 213.722656 L 53.414062 215.230469 L 55.140625 218.253906 L 53.949219 218.890625 L 52.3125 215.855469 L 51.488281 214.339844 L 50.617188 212.851562 L 48.871094 209.878906 L 47.03125 206.957031 C 44.546875 203.082031 41.933594 199.28125 39.160156 195.597656 C 36.402344 191.902344 33.535156 188.289062 30.550781 184.769531 C 27.566406 181.253906 24.484375 177.816406 21.253906 174.519531"/></g></g></g><g clip-path="url(#W)"><g clip-path="url(#X)"><g clip-path="url(#Y)"><path fill="#051F20" d="M 101.738281 190.75 C 97.550781 192.214844 93.425781 193.847656 89.34375 195.578125 C 85.265625 197.320312 81.234375 199.167969 77.289062 201.179688 C 75.316406 202.179688 73.363281 203.21875 71.4375 204.3125 C 69.515625 205.398438 67.613281 206.535156 65.765625 207.734375 C 62.054688 210.121094 58.5 212.761719 55.363281 215.804688 L 54.425781 214.828125 C 57.742188 211.773438 61.417969 209.1875 65.226562 206.875 C 67.125 205.707031 69.066406 204.617188 71.03125 203.570312 C 72.992188 202.519531 74.984375 201.527344 76.992188 200.570312 C 81 198.652344 85.089844 196.90625 89.214844 195.265625 C 93.34375 193.636719 97.515625 192.109375 101.738281 190.75"/></g></g></g><g clip-path="url(#Z)"><g clip-path="url(#aa)"><g clip-path="url(#ab)"><path fill="#051F20" d="M 110.191406 176.9375 C 105.96875 176.664062 101.730469 176.699219 97.507812 176.921875 C 93.289062 177.144531 89.082031 177.605469 84.917969 178.316406 C 80.761719 179.039062 76.652344 180.03125 72.667969 181.394531 C 70.679688 182.074219 68.730469 182.867188 66.820312 183.742188 C 64.925781 184.640625 63.085938 185.648438 61.316406 186.761719 L 60.773438 185.902344 C 62.609375 184.796875 64.507812 183.808594 66.453125 182.933594 C 68.410156 182.082031 70.402344 181.320312 72.429688 180.667969 C 76.484375 179.375 80.644531 178.460938 84.835938 177.816406 C 89.035156 177.179688 93.261719 176.808594 97.496094 176.667969 C 101.730469 176.53125 105.976562 176.578125 110.191406 176.9375"/></g></g></g><g clip-path="url(#ac)"><g clip-path="url(#ad)"><g clip-path="url(#ae)"><path fill="#051F20" d="M 115.925781 151.714844 C 111.996094 152.101562 108.082031 152.660156 104.1875 153.304688 C 100.292969 153.960938 96.414062 154.707031 92.574219 155.613281 C 88.742188 156.535156 84.929688 157.5625 81.195312 158.824219 C 77.472656 160.109375 73.8125 161.585938 70.347656 163.429688 L 70.027344 162.832031 C 73.566406 161.011719 77.273438 159.582031 81.035156 158.34375 C 84.804688 157.125 88.644531 156.15625 92.5 155.285156 C 96.363281 154.429688 100.257812 153.738281 104.160156 153.136719 C 108.070312 152.546875 111.988281 152.046875 115.925781 151.714844"/></g></g></g><g clip-path="url(#af)"><g clip-path="url(#ag)"><g clip-path="url(#ah)"><path fill="#051F20" d="M 130.535156 130.265625 C 126.363281 130.757812 122.207031 131.398438 118.066406 132.109375 C 113.925781 132.828125 109.800781 133.628906 105.710938 134.582031 C 101.621094 135.539062 97.546875 136.570312 93.5625 137.878906 C 89.582031 139.183594 85.640625 140.65625 81.957031 142.617188 L 81.636719 142.019531 C 85.410156 140.078125 89.394531 138.652344 93.410156 137.394531 C 97.429688 136.132812 101.527344 135.15625 105.636719 134.25 C 109.746094 133.351562 113.886719 132.605469 118.039062 131.941406 C 122.191406 131.285156 126.355469 130.703125 130.535156 130.265625"/></g></g></g><g fill="#295C4F"><g><g><path d="M 16.875 -51.121094 C 17.039062 -49.300781 17.867188 -48.144531 19.027344 -47.976562 C 20.019531 -48.804688 31.765625 -58.566406 32.921875 -59.226562 C 36.230469 -61.378906 38.714844 -63.363281 42.847656 -64.851562 C 44.007812 -65.515625 46.488281 -65.847656 47.976562 -66.175781 C 50.460938 -66.671875 52.941406 -67.167969 55.589844 -67.003906 C 57.410156 -66.839844 59.0625 -66.34375 60.882812 -65.679688 C 68.660156 -63.035156 72.628906 -58.730469 75.605469 -53.4375 C 79.742188 -45.496094 82.722656 -39.707031 80.902344 -25.3125 C 80.074219 -21.011719 78.75 -16.875 77.425781 -13.234375 C 75.277344 -7.609375 69.484375 1.324219 63.363281 7.445312 C 55.753906 15.054688 46.160156 20.347656 34.742188 20.183594 C 28.785156 20.019531 23.160156 18.363281 19.6875 12.738281 C 17.703125 9.59375 16.710938 5.957031 16.378906 2.480469 C 15.882812 -2.648438 16.378906 -6.949219 17.535156 -12.078125 C 19.191406 -18.035156 21.671875 -23.328125 24.652344 -28.457031 C 26.800781 -32.097656 29.285156 -35.40625 31.597656 -38.546875 C 38.714844 -46.820312 43.015625 -49.632812 49.796875 -50.957031 C 50.128906 -51.289062 51.785156 -50.789062 52.609375 -51.121094 C 53.769531 -51.453125 55.09375 -51.453125 56.414062 -50.460938 L 57.738281 -49.964844 C 58.234375 -50.128906 58.898438 -50.128906 59.226562 -50.460938 C 59.558594 -50.625 59.558594 -51.289062 59.394531 -51.949219 C 58.566406 -53.601562 57.242188 -54.761719 55.257812 -55.421875 C 47.480469 -57.078125 43.015625 -55.589844 35.570312 -51.289062 C 33.417969 -49.796875 32.261719 -48.972656 31.269531 -48.144531 C 28.621094 -45.828125 26.636719 -44.007812 24.816406 -41.691406 C 18.53125 -33.914062 13.566406 -25.476562 10.753906 -17.535156 C 9.761719 -14.890625 9.097656 -11.414062 8.601562 -8.601562 C 7.777344 -2.316406 8.4375 3.308594 10.753906 9.429688 C 13.234375 16.710938 19.851562 22.664062 26.304688 24.320312 C 35.238281 26.636719 43.015625 25.644531 48.144531 23.824219 C 57.242188 20.679688 62.371094 16.214844 67.335938 11.582031 C 70.148438 8.933594 73.621094 4.796875 75.605469 1.820312 C 80.238281 -5.128906 84.542969 -14.0625 86.03125 -22.167969 C 87.355469 -29.449219 87.683594 -33.914062 86.855469 -39.871094 C 85.699219 -47.976562 82.058594 -55.09375 76.601562 -61.378906 C 74.285156 -64.523438 71.304688 -66.839844 67.664062 -68.492188 C 59.558594 -72.464844 51.289062 -72.132812 42.683594 -70.476562 C 41.691406 -70.3125 40.863281 -69.980469 39.871094 -69.816406 L 32.097656 -66.34375 C 31.269531 -66.011719 30.773438 -65.847656 30.441406 -65.183594 C 27.960938 -63.53125 26.472656 -62.867188 23.824219 -60.550781 C 23.328125 -59.726562 22.664062 -58.730469 22.003906 -58.070312 C 20.347656 -56.25 18.199219 -54.597656 16.875 -51.121094 Z M 16.875 -51.121094" transform="translate(120.815 220.523)"/></g></g></g><g fill="#295C4F"><g><g><path d="M 62.703125 -22.003906 L 62.039062 -23.492188 L 61.542969 -23.824219 C 59.890625 -22.832031 58.566406 -22.003906 57.410156 -21.011719 C 53.601562 -18.53125 53.933594 -18.859375 49.964844 -16.378906 C 47.648438 -14.722656 45.164062 -13.234375 43.015625 -11.910156 C 40.699219 -10.257812 38.050781 -8.273438 35.40625 -7.113281 C 34.742188 -6.78125 34.082031 -6.78125 33.585938 -6.617188 C 33.089844 -6.453125 32.757812 -6.453125 32.425781 -6.617188 C 31.597656 -7.113281 31.101562 -7.777344 30.9375 -8.4375 C 29.945312 -10.753906 29.945312 -13.234375 30.441406 -15.550781 C 30.605469 -15.882812 30.605469 -16.214844 30.773438 -16.378906 C 31.269531 -17.703125 31.101562 -19.523438 31.101562 -19.523438 C 30.773438 -20.679688 30.109375 -21.507812 29.117188 -21.839844 C 27.132812 -22.003906 25.972656 -20.679688 24.652344 -20.515625 C 25.476562 -22.167969 26.800781 -23.660156 26.304688 -25.972656 C 25.644531 -29.78125 21.671875 -30.441406 18.199219 -31.101562 C 15.054688 -30.773438 12.242188 -28.785156 10.257812 -26.636719 C 8.273438 -24.15625 6.121094 -22.167969 4.300781 -19.355469 C 3.96875 -19.027344 3.640625 -18.199219 2.976562 -17.371094 L 1.820312 -15.386719 C 1.488281 -14.226562 0.992188 -13.402344 0.828125 -12.40625 C 0.828125 -12.242188 0.828125 -12.242188 0.660156 -12.078125 C 0.332031 -11.085938 0 -10.257812 -0.496094 -9.097656 C -1.15625 -6.617188 -0.660156 -4.46875 0.828125 -2.480469 C 1.820312 -1.984375 3.144531 -1.15625 3.472656 -0.828125 C 3.96875 -0.660156 4.46875 -0.660156 4.796875 -0.660156 C 7.28125 0.332031 10.09375 0.332031 12.738281 -0.992188 C 15.386719 -2.152344 18.035156 -4.300781 20.019531 -5.789062 C 20.347656 -5.957031 20.515625 -6.453125 20.847656 -6.78125 C 22.003906 -6.78125 22.003906 -8.4375 23.160156 -9.097656 C 23.328125 -8.769531 23.328125 -8.4375 23.660156 -8.273438 C 24.15625 -7.445312 23.988281 -7.113281 24.980469 -6.121094 C 25.644531 -4.632812 26.800781 -3.96875 27.792969 -2.648438 C 28.289062 -2.480469 28.621094 -1.820312 29.117188 -1.65625 C 29.449219 -1.324219 30.441406 -1.324219 30.773438 -1.15625 C 31.433594 -0.992188 32.921875 -1.324219 33.585938 -1.324219 C 34.082031 -1.324219 34.910156 -1.65625 35.074219 -1.65625 C 35.570312 -1.65625 36.398438 -1.984375 36.726562 -2.152344 C 37.554688 -2.648438 38.050781 -2.480469 39.042969 -2.976562 C 40.699219 -4.136719 42.1875 -4.46875 43.511719 -5.957031 L 47.480469 -8.933594 L 49.964844 -11.085938 C 50.460938 -11.25 51.617188 -12.574219 51.785156 -12.738281 C 52.609375 -13.070312 53.273438 -13.898438 53.769531 -14.394531 C 54.265625 -14.722656 55.421875 -15.222656 56.25 -15.882812 C 58.402344 -17.371094 61.046875 -19.523438 62.703125 -22.003906 Z M 22.335938 -17.371094 C 19.851562 -14.722656 18.695312 -12.738281 16.214844 -10.09375 C 14.558594 -8.273438 13.070312 -7.113281 10.917969 -6.285156 C 9.265625 -5.625 6.285156 -5.460938 4.46875 -5.460938 C 5.292969 -8.769531 6.78125 -11.582031 8.273438 -14.226562 C 10.09375 -17.371094 15.882812 -25.148438 20.847656 -25.972656 C 20.679688 -25.808594 19.355469 -18.53125 22.996094 -18.199219 L 23.160156 -18.199219 C 23.160156 -18.199219 22.5 -17.371094 22.335938 -17.371094 Z M 22.335938 -17.371094" transform="translate(209.983 220.523)"/></g></g></g><g fill="#295C4F"><g><g><path d="M 28.953125 -32.59375 C 28.457031 -32.921875 27.628906 -33.75 24.320312 -33.75 C 22.335938 -33.75 21.507812 -33.253906 20.019531 -32.921875 L 18.53125 -32.097656 C 17.371094 -31.597656 17.371094 -31.597656 16.542969 -30.9375 C 16.046875 -29.945312 15.222656 -28.953125 14.558594 -28.125 C 13.730469 -27.132812 14.0625 -25.644531 13.898438 -24.484375 C 13.234375 -23.824219 13.402344 -21.839844 13.402344 -21.175781 L 14.0625 -19.851562 C 13.898438 -19.027344 14.226562 -18.363281 14.558594 -17.703125 C 15.386719 -16.214844 15.550781 -15.222656 16.214844 -13.234375 L 16.378906 -12.574219 L 16.710938 -11.746094 L 17.371094 -10.753906 L 18.363281 -8.769531 L 18.695312 -8.273438 L 21.011719 -2.316406 C 22.003906 0.164062 22.335938 1.324219 22.167969 3.472656 C 22.335938 4.796875 22.335938 6.285156 22.003906 7.777344 C 21.839844 8.769531 21.507812 9.925781 20.679688 11.085938 C 19.355469 12.90625 18.363281 13.402344 15.222656 13.898438 C 14.226562 14.0625 12.90625 13.730469 12.078125 13.234375 C 10.753906 11.910156 9.761719 11.25 9.761719 9.761719 C 9.925781 9.429688 9.429688 8.933594 9.097656 8.601562 C 8.4375 7.445312 8.273438 5.957031 8.601562 3.144531 L 9.59375 0.828125 L 11.582031 -1.324219 L 11.414062 -2.8125 L 11.085938 -3.144531 L 11.085938 -3.308594 C 9.59375 -2.648438 9.429688 -2.8125 8.105469 -1.820312 C 6.617188 -0.828125 4.964844 0.660156 3.804688 2.152344 L 3.640625 5.128906 C 3.640625 5.128906 3.308594 5.128906 3.308594 5.460938 L 3.308594 5.625 C 3.308594 7.28125 3.804688 9.097656 4.632812 10.257812 C 5.292969 11.085938 5.957031 12.40625 7.113281 13.402344 C 7.777344 14.394531 9.097656 15.71875 10.589844 16.710938 C 11.25 17.703125 12.574219 17.703125 12.90625 18.035156 C 13.730469 18.363281 15.054688 18.363281 16.378906 18.695312 C 17.867188 18.859375 19.027344 19.027344 20.019531 18.695312 L 21.671875 18.199219 C 21.507812 17.867188 21.34375 17.867188 21.34375 17.703125 C 21.839844 17.703125 22.335938 17.703125 22.832031 17.535156 C 23.824219 17.207031 25.476562 15.71875 26.636719 14.0625 C 27.792969 13.070312 28.125 11.414062 28.125 11.25 C 28.289062 10.257812 29.449219 8.933594 28.785156 8.273438 C 29.117188 7.445312 28.953125 7.113281 28.785156 6.617188 C 29.117188 4.136719 29.285156 2.976562 28.785156 0.496094 C 28.785156 0.164062 28.289062 0 28.289062 -0.332031 C 28.621094 -0.992188 28.289062 -1.15625 27.960938 -1.488281 C 27.792969 -1.984375 27.464844 -2.480469 27.464844 -3.308594 L 26.96875 -4.964844 C 26.472656 -6.453125 26.140625 -6.617188 25.808594 -8.105469 C 25.808594 -8.601562 24.816406 -9.265625 24.980469 -9.761719 C 24.816406 -10.09375 24.320312 -10.257812 24.484375 -10.589844 L 23.660156 -11.25 L 23.160156 -12.738281 L 22.832031 -13.566406 L 22.167969 -14.722656 L 22.167969 -15.71875 C 21.839844 -15.882812 21.839844 -16.046875 21.839844 -16.542969 C 21.839844 -17.039062 21.34375 -17.535156 21.34375 -18.199219 C 20.847656 -19.523438 20.347656 -20.515625 20.515625 -22.167969 C 20.019531 -23.492188 20.019531 -24.816406 20.515625 -25.808594 C 20.679688 -26.636719 21.34375 -27.132812 21.839844 -27.464844 C 22.167969 -27.960938 22.664062 -28.289062 22.996094 -28.457031 C 23.660156 -28.953125 23.660156 -28.621094 25.148438 -29.117188 L 26.96875 -29.117188 C 28.953125 -28.621094 30.605469 -28.125 31.101562 -27.296875 L 31.597656 -27.296875 L 31.597656 -27.464844 L 32.425781 -27.464844 L 32.59375 -27.132812 L 32.921875 -26.96875 C 32.921875 -27.628906 33.089844 -29.945312 28.953125 -32.59375 Z M 28.953125 -32.59375" transform="translate(258.62 220.523)"/></g></g></g><g fill="#295C4F"><g><g><path d="M 13.730469 -36.230469 C 14.722656 -35.570312 15.71875 -35.570312 16.542969 -35.902344 C 18.035156 -36.894531 19.523438 -37.886719 20.183594 -39.707031 C 20.847656 -41.527344 20.183594 -43.347656 19.6875 -45 C 19.355469 -46.160156 18.363281 -46.65625 16.542969 -46.488281 C 16.542969 -46.488281 15.882812 -46.488281 15.71875 -46.324219 C 13.566406 -45.164062 11.746094 -44.007812 10.917969 -41.527344 C 10.589844 -39.871094 10.917969 -38.546875 11.910156 -37.390625 C 12.40625 -36.894531 13.234375 -36.5625 13.730469 -36.230469 Z M 36.066406 -18.53125 C 36.894531 -20.019531 36.726562 -21.011719 36.398438 -21.34375 C 34.246094 -19.191406 32.097656 -17.371094 30.109375 -15.550781 C 27.628906 -13.234375 25.3125 -10.589844 22.664062 -8.273438 C 20.183594 -5.789062 17.207031 -3.472656 14.558594 -1.15625 C 13.234375 0 11.746094 0.660156 9.925781 1.15625 C 10.09375 -0.496094 10.589844 -1.984375 10.589844 -3.472656 C 10.753906 -5.128906 11.746094 -6.617188 11.25 -8.105469 C 11.25 -8.4375 11.414062 -8.601562 11.582031 -8.933594 C 11.746094 -9.59375 12.078125 -10.257812 12.40625 -10.917969 C 13.070312 -13.070312 13.730469 -15.054688 14.226562 -17.039062 C 14.558594 -17.867188 14.890625 -18.695312 14.890625 -19.6875 C 15.054688 -20.515625 15.054688 -21.507812 14.722656 -22.167969 C 14.394531 -22.832031 13.566406 -23.492188 12.90625 -23.988281 C 12.40625 -24.816406 11.25 -25.3125 10.753906 -26.140625 C 10.257812 -26.96875 9.761719 -26.636719 9.265625 -26.472656 C 8.601562 -26.472656 8.4375 -25.972656 8.601562 -25.3125 L 8.601562 -23.988281 C 7.777344 -20.847656 6.949219 -18.035156 6.285156 -15.054688 C 5.625 -12.90625 4.964844 -10.753906 4.632812 -8.601562 C 3.804688 -5.625 3.144531 -2.480469 3.472656 0.332031 C 3.640625 0.992188 4.136719 1.324219 4.300781 1.984375 C 4.632812 2.316406 4.964844 2.8125 5.128906 3.308594 C 5.292969 3.640625 5.292969 4.136719 5.625 4.300781 C 6.78125 5.128906 7.445312 6.617188 9.097656 6.949219 C 10.257812 7.28125 11.085938 7.777344 12.40625 7.445312 C 13.566406 6.78125 14.722656 6.285156 15.71875 5.789062 C 16.710938 5.460938 17.703125 5.292969 18.363281 4.632812 C 19.355469 3.96875 20.183594 3.308594 20.847656 2.480469 C 21.839844 1.15625 22.996094 -0.164062 24.320312 -0.992188 L 25.148438 -1.820312 C 25.476562 -2.152344 25.644531 -2.648438 25.972656 -2.976562 L 27.792969 -5.625 C 30.109375 -8.933594 30.441406 -10.421875 31.101562 -11.25 C 32.097656 -12.40625 35.734375 -18.199219 35.902344 -18.363281 Z M 36.066406 -18.53125" transform="translate(293.196 220.523)"/></g></g></g><g fill="#295C4F"><g><g><path d="M 28.953125 -32.59375 C 28.457031 -32.921875 27.628906 -33.75 24.320312 -33.75 C 22.335938 -33.75 21.507812 -33.253906 20.019531 -32.921875 L 18.53125 -32.097656 C 17.371094 -31.597656 17.371094 -31.597656 16.542969 -30.9375 C 16.046875 -29.945312 15.222656 -28.953125 14.558594 -28.125 C 13.730469 -27.132812 14.0625 -25.644531 13.898438 -24.484375 C 13.234375 -23.824219 13.402344 -21.839844 13.402344 -21.175781 L 14.0625 -19.851562 C 13.898438 -19.027344 14.226562 -18.363281 14.558594 -17.703125 C 15.386719 -16.214844 15.550781 -15.222656 16.214844 -13.234375 L 16.378906 -12.574219 L 16.710938 -11.746094 L 17.371094 -10.753906 L 18.363281 -8.769531 L 18.695312 -8.273438 L 21.011719 -2.316406 C 22.003906 0.164062 22.335938 1.324219 22.167969 3.472656 C 22.335938 4.796875 22.335938 6.285156 22.003906 7.777344 C 21.839844 8.769531 21.507812 9.925781 20.679688 11.085938 C 19.355469 12.90625 18.363281 13.402344 15.222656 13.898438 C 14.226562 14.0625 12.90625 13.730469 12.078125 13.234375 C 10.753906 11.910156 9.761719 11.25 9.761719 9.761719 C 9.925781 9.429688 9.429688 8.933594 9.097656 8.601562 C 8.4375 7.445312 8.273438 5.957031 8.601562 3.144531 L 9.59375 0.828125 L 11.582031 -1.324219 L 11.414062 -2.8125 L 11.085938 -3.144531 L 11.085938 -3.308594 C 9.59375 -2.648438 9.429688 -2.8125 8.105469 -1.820312 C 6.617188 -0.828125 4.964844 0.660156 3.804688 2.152344 L 3.640625 5.128906 C 3.640625 5.128906 3.308594 5.128906 3.308594 5.460938 L 3.308594 5.625 C 3.308594 7.28125 3.804688 9.097656 4.632812 10.257812 C 5.292969 11.085938 5.957031 12.40625 7.113281 13.402344 C 7.777344 14.394531 9.097656 15.71875 10.589844 16.710938 C 11.25 17.703125 12.574219 17.703125 12.90625 18.035156 C 13.730469 18.363281 15.054688 18.363281 16.378906 18.695312 C 17.867188 18.859375 19.027344 19.027344 20.019531 18.695312 L 21.671875 18.199219 C 21.507812 17.867188 21.34375 17.867188 21.34375 17.703125 C 21.839844 17.703125 22.335938 17.703125 22.832031 17.535156 C 23.824219 17.207031 25.476562 15.71875 26.636719 14.0625 C 27.792969 13.070312 28.125 11.414062 28.125 11.25 C 28.289062 10.257812 29.449219 8.933594 28.785156 8.273438 C 29.117188 7.445312 28.953125 7.113281 28.785156 6.617188 C 29.117188 4.136719 29.285156 2.976562 28.785156 0.496094 C 28.785156 0.164062 28.289062 0 28.289062 -0.332031 C 28.621094 -0.992188 28.289062 -1.15625 27.960938 -1.488281 C 27.792969 -1.984375 27.464844 -2.480469 27.464844 -3.308594 L 26.96875 -4.964844 C 26.472656 -6.453125 26.140625 -6.617188 25.808594 -8.105469 C 25.808594 -8.601562 24.816406 -9.265625 24.980469 -9.761719 C 24.816406 -10.09375 24.320312 -10.257812 24.484375 -10.589844 L 23.660156 -11.25 L 23.160156 -12.738281 L 22.832031 -13.566406 L 22.167969 -14.722656 L 22.167969 -15.71875 C 21.839844 -15.882812 21.839844 -16.046875 21.839844 -16.542969 C 21.839844 -17.039062 21.34375 -17.535156 21.34375 -18.199219 C 20.847656 -19.523438 20.347656 -20.515625 20.515625 -22.167969 C 20.019531 -23.492188 20.019531 -24.816406 20.515625 -25.808594 C 20.679688 -26.636719 21.34375 -27.132812 21.839844 -27.464844 C 22.167969 -27.960938 22.664062 -28.289062 22.996094 -28.457031 C 23.660156 -28.953125 23.660156 -28.621094 25.148438 -29.117188 L 26.96875 -29.117188 C 28.953125 -28.621094 30.605469 -28.125 31.101562 -27.296875 L 31.597656 -27.296875 L 31.597656 -27.464844 L 32.425781 -27.464844 L 32.59375 -27.132812 L 32.921875 -26.96875 C 32.921875 -27.628906 33.089844 -29.945312 28.953125 -32.59375 Z M 28.953125 -32.59375" transform="translate(321.65 220.523)"/></g></g></g></svg>