<svg xmlns="http://www.w3.org/2000/svg" width="375" viewBox="0 0 375 375" height="375" version="1.0"><defs><clipPath id="a"><path d="M 188 3 L 221 3 L 221 91 L 188 91 Z M 188 3"/></clipPath><clipPath id="b"><path d="M 14.429688 77.519531 L 301.074219 -31.710938 L 416.980469 272.453125 L 130.339844 381.683594 Z M 14.429688 77.519531"/></clipPath><clipPath id="c"><path d="M 14.429688 77.519531 L 301.074219 -31.710938 L 416.980469 272.453125 L 130.339844 381.683594 Z M 14.429688 77.519531"/></clipPath><clipPath id="d"><path d="M 237 23 L 323 23 L 323 79 L 237 79 Z M 237 23"/></clipPath><clipPath id="e"><path d="M 14.429688 77.519531 L 301.074219 -31.710938 L 416.980469 272.453125 L 130.339844 381.683594 Z M 14.429688 77.519531"/></clipPath><clipPath id="f"><path d="M 14.429688 77.519531 L 301.074219 -31.710938 L 416.980469 272.453125 L 130.339844 381.683594 Z M 14.429688 77.519531"/></clipPath><clipPath id="g"><path d="M 206 95 L 305 95 L 305 133 L 206 133 Z M 206 95"/></clipPath><clipPath id="h"><path d="M 14.429688 77.519531 L 301.074219 -31.710938 L 416.980469 272.453125 L 130.339844 381.683594 Z M 14.429688 77.519531"/></clipPath><clipPath id="i"><path d="M 14.429688 77.519531 L 301.074219 -31.710938 L 416.980469 272.453125 L 130.339844 381.683594 Z M 14.429688 77.519531"/></clipPath><clipPath id="j"><path d="M 187 138 L 273 138 L 273 175 L 187 175 Z M 187 138"/></clipPath><clipPath id="k"><path d="M 14.429688 77.519531 L 301.074219 -31.710938 L 416.980469 272.453125 L 130.339844 381.683594 Z M 14.429688 77.519531"/></clipPath><clipPath id="l"><path d="M 14.429688 77.519531 L 301.074219 -31.710938 L 416.980469 272.453125 L 130.339844 381.683594 Z M 14.429688 77.519531"/></clipPath><clipPath id="m"><path d="M 172 183 L 270 183 L 270 219 L 172 219 Z M 172 183"/></clipPath><clipPath id="n"><path d="M 14.429688 77.519531 L 301.074219 -31.710938 L 416.980469 272.453125 L 130.339844 381.683594 Z M 14.429688 77.519531"/></clipPath><clipPath id="o"><path d="M 14.429688 77.519531 L 301.074219 -31.710938 L 416.980469 272.453125 L 130.339844 381.683594 Z M 14.429688 77.519531"/></clipPath><clipPath id="p"><path d="M 156 220 L 250 220 L 250 268 L 156 268 Z M 156 220"/></clipPath><clipPath id="q"><path d="M 14.429688 77.519531 L 301.074219 -31.710938 L 416.980469 272.453125 L 130.339844 381.683594 Z M 14.429688 77.519531"/></clipPath><clipPath id="r"><path d="M 14.429688 77.519531 L 301.074219 -31.710938 L 416.980469 272.453125 L 130.339844 381.683594 Z M 14.429688 77.519531"/></clipPath><clipPath id="s"><path d="M 129 39 L 188 39 L 188 119 L 129 119 Z M 129 39"/></clipPath><clipPath id="t"><path d="M 14.429688 77.519531 L 301.074219 -31.710938 L 416.980469 272.453125 L 130.339844 381.683594 Z M 14.429688 77.519531"/></clipPath><clipPath id="u"><path d="M 14.429688 77.519531 L 301.074219 -31.710938 L 416.980469 272.453125 L 130.339844 381.683594 Z M 14.429688 77.519531"/></clipPath><clipPath id="v"><path d="M 92 84 L 160 84 L 160 160 L 92 160 Z M 92 84"/></clipPath><clipPath id="w"><path d="M 14.429688 77.519531 L 301.074219 -31.710938 L 416.980469 272.453125 L 130.339844 381.683594 Z M 14.429688 77.519531"/></clipPath><clipPath id="x"><path d="M 14.429688 77.519531 L 301.074219 -31.710938 L 416.980469 272.453125 L 130.339844 381.683594 Z M 14.429688 77.519531"/></clipPath><clipPath id="y"><path d="M 66 134 L 137 134 L 137 205 L 66 205 Z M 66 134"/></clipPath><clipPath id="z"><path d="M 14.429688 77.519531 L 301.074219 -31.710938 L 416.980469 272.453125 L 130.339844 381.683594 Z M 14.429688 77.519531"/></clipPath><clipPath id="A"><path d="M 14.429688 77.519531 L 301.074219 -31.710938 L 416.980469 272.453125 L 130.339844 381.683594 Z M 14.429688 77.519531"/></clipPath><clipPath id="B"><path d="M 54 181 L 123 181 L 123 261 L 54 261 Z M 54 181"/></clipPath><clipPath id="C"><path d="M 14.429688 77.519531 L 301.074219 -31.710938 L 416.980469 272.453125 L 130.339844 381.683594 Z M 14.429688 77.519531"/></clipPath><clipPath id="D"><path d="M 14.429688 77.519531 L 301.074219 -31.710938 L 416.980469 272.453125 L 130.339844 381.683594 Z M 14.429688 77.519531"/></clipPath><clipPath id="E"><path d="M 134 28 L 312 28 L 312 375 L 134 375 Z M 134 28"/></clipPath><clipPath id="F"><path d="M 14.429688 77.519531 L 301.074219 -31.710938 L 416.980469 272.453125 L 130.339844 381.683594 Z M 14.429688 77.519531"/></clipPath><clipPath id="G"><path d="M 14.429688 77.519531 L 301.074219 -31.710938 L 416.980469 272.453125 L 130.339844 381.683594 Z M 14.429688 77.519531"/></clipPath><clipPath id="H"><path d="M 201 24 L 207 24 L 207 111 L 201 111 Z M 201 24"/></clipPath><clipPath id="I"><path d="M 14.429688 77.519531 L 301.074219 -31.710938 L 416.980469 272.453125 L 130.339844 381.683594 Z M 14.429688 77.519531"/></clipPath><clipPath id="J"><path d="M 14.429688 77.519531 L 301.074219 -31.710938 L 416.980469 272.453125 L 130.339844 381.683594 Z M 14.429688 77.519531"/></clipPath><clipPath id="K"><path d="M 142 54 L 190 54 L 190 135 L 142 135 Z M 142 54"/></clipPath><clipPath id="L"><path d="M 14.429688 77.519531 L 301.074219 -31.710938 L 416.980469 272.453125 L 130.339844 381.683594 Z M 14.429688 77.519531"/></clipPath><clipPath id="M"><path d="M 14.429688 77.519531 L 301.074219 -31.710938 L 416.980469 272.453125 L 130.339844 381.683594 Z M 14.429688 77.519531"/></clipPath><clipPath id="N"><path d="M 104 99 L 166 99 L 166 179 L 104 179 Z M 104 99"/></clipPath><clipPath id="O"><path d="M 14.429688 77.519531 L 301.074219 -31.710938 L 416.980469 272.453125 L 130.339844 381.683594 Z M 14.429688 77.519531"/></clipPath><clipPath id="P"><path d="M 14.429688 77.519531 L 301.074219 -31.710938 L 416.980469 272.453125 L 130.339844 381.683594 Z M 14.429688 77.519531"/></clipPath><clipPath id="Q"><path d="M 80 145 L 149 145 L 149 226 L 80 226 Z M 80 145"/></clipPath><clipPath id="R"><path d="M 14.429688 77.519531 L 301.074219 -31.710938 L 416.980469 272.453125 L 130.339844 381.683594 Z M 14.429688 77.519531"/></clipPath><clipPath id="S"><path d="M 14.429688 77.519531 L 301.074219 -31.710938 L 416.980469 272.453125 L 130.339844 381.683594 Z M 14.429688 77.519531"/></clipPath><clipPath id="T"><path d="M 69 193 L 138 193 L 138 284 L 69 284 Z M 69 193"/></clipPath><clipPath id="U"><path d="M 14.429688 77.519531 L 301.074219 -31.710938 L 416.980469 272.453125 L 130.339844 381.683594 Z M 14.429688 77.519531"/></clipPath><clipPath id="V"><path d="M 14.429688 77.519531 L 301.074219 -31.710938 L 416.980469 272.453125 L 130.339844 381.683594 Z M 14.429688 77.519531"/></clipPath><clipPath id="W"><path d="M 136 226 L 233 226 L 233 277 L 136 277 Z M 136 226"/></clipPath><clipPath id="X"><path d="M 14.429688 77.519531 L 301.074219 -31.710938 L 416.980469 272.453125 L 130.339844 381.683594 Z M 14.429688 77.519531"/></clipPath><clipPath id="Y"><path d="M 14.429688 77.519531 L 301.074219 -31.710938 L 416.980469 272.453125 L 130.339844 381.683594 Z M 14.429688 77.519531"/></clipPath><clipPath id="Z"><path d="M 149 197 L 250 197 L 250 219 L 149 219 Z M 149 197"/></clipPath><clipPath id="aa"><path d="M 14.429688 77.519531 L 301.074219 -31.710938 L 416.980469 272.453125 L 130.339844 381.683594 Z M 14.429688 77.519531"/></clipPath><clipPath id="ab"><path d="M 14.429688 77.519531 L 301.074219 -31.710938 L 416.980469 272.453125 L 130.339844 381.683594 Z M 14.429688 77.519531"/></clipPath><clipPath id="ac"><path d="M 168 147 L 262 147 L 262 172 L 168 172 Z M 168 147"/></clipPath><clipPath id="ad"><path d="M 14.429688 77.519531 L 301.074219 -31.710938 L 416.980469 272.453125 L 130.339844 381.683594 Z M 14.429688 77.519531"/></clipPath><clipPath id="ae"><path d="M 14.429688 77.519531 L 301.074219 -31.710938 L 416.980469 272.453125 L 130.339844 381.683594 Z M 14.429688 77.519531"/></clipPath><clipPath id="af"><path d="M 191 104 L 291 104 L 291 130 L 191 130 Z M 191 104"/></clipPath><clipPath id="ag"><path d="M 14.429688 77.519531 L 301.074219 -31.710938 L 416.980469 272.453125 L 130.339844 381.683594 Z M 14.429688 77.519531"/></clipPath><clipPath id="ah"><path d="M 14.429688 77.519531 L 301.074219 -31.710938 L 416.980469 272.453125 L 130.339844 381.683594 Z M 14.429688 77.519531"/></clipPath></defs><g clip-path="url(#a)"><g clip-path="url(#b)"><g clip-path="url(#c)"><path fill="#8EB69B" d="M 209.800781 3.078125 C 209.800781 3.078125 217.257812 27.238281 219.9375 54.941406 C 222.613281 82.640625 207.914062 89.875 201.230469 90.105469 C 194.542969 90.339844 171.257812 67.257812 209.800781 3.078125"/></g></g></g><g clip-path="url(#d)"><g clip-path="url(#e)"><g clip-path="url(#f)"><path fill="#235347" d="M 322.023438 23.648438 C 322.023438 23.648438 298.242188 21.78125 267.890625 35.394531 C 237.542969 49 233.890625 67.34375 240.71875 75.40625 C 247.542969 83.476562 281.3125 75.605469 322.023438 23.648438"/></g></g></g><g clip-path="url(#g)"><g clip-path="url(#h)"><g clip-path="url(#i)"><path fill="#8EB69B" d="M 304.042969 103.605469 C 304.042969 103.605469 282.003906 90.027344 245.175781 97.140625 C 208.351562 104.257812 205.054688 117.5625 206.609375 123.1875 C 209 131.847656 227.332031 146.023438 304.042969 103.605469"/></g></g></g><g clip-path="url(#j)"><g clip-path="url(#k)"><g clip-path="url(#l)"><path fill="#8EB69B" d="M 272.359375 146.851562 C 272.359375 146.851562 253.875 135.363281 226.640625 139.136719 C 193.175781 143.765625 186.324219 157.402344 187.082031 163.1875 C 188.214844 171.859375 195.652344 189.269531 272.359375 146.851562"/></g></g></g><g clip-path="url(#m)"><g clip-path="url(#n)"><g clip-path="url(#o)"><path fill="#235347" d="M 269.363281 200.234375 C 269.363281 200.234375 241.074219 181.78125 212.585938 183.417969 C 178.859375 185.359375 172.265625 201.683594 173.023438 207.46875 C 173.953125 214.601562 185.339844 225.382812 223.082031 212.3125 C 233.203125 208.808594 254.507812 202.394531 269.363281 200.234375"/></g></g></g><g clip-path="url(#p)"><g clip-path="url(#q)"><g clip-path="url(#r)"><path fill="#8EB69B" d="M 249.394531 223.945312 C 249.394531 223.945312 219.074219 215.578125 187.589844 226.800781 C 155.765625 238.144531 154.8125 256.539062 157.308594 261.8125 C 160.390625 268.3125 174.539062 275.082031 206.453125 251.074219 C 215.011719 244.640625 235.917969 230.550781 249.394531 223.945312"/></g></g></g><g clip-path="url(#s)"><g clip-path="url(#t)"><g clip-path="url(#u)"><path fill="#8EB69B" d="M 129.261719 39.898438 C 129.261719 39.898438 151.726562 45.050781 172.300781 74.15625 C 192.875 103.257812 187.503906 114.574219 183.265625 117.421875 C 176.734375 121.804688 156.410156 119.5 129.261719 39.898438"/></g></g></g><g clip-path="url(#v)"><g clip-path="url(#w)"><g clip-path="url(#x)"><path fill="#235347" d="M 92.636719 84.035156 C 92.636719 84.035156 123.210938 94.28125 142.976562 114.042969 C 166.839844 137.910156 159.011719 152.949219 154.5625 156.738281 C 147.890625 162.410156 121.023438 166.851562 92.636719 84.035156"/></g></g></g><g clip-path="url(#y)"><g clip-path="url(#z)"><g clip-path="url(#A)"><path fill="#8EB69B" d="M 66.429688 134.804688 C 66.429688 134.804688 100.347656 142.5625 119.835938 160.351562 C 144.765625 183.101562 135.207031 197.6875 130.757812 201.476562 C 125.269531 206.140625 109.117188 210.640625 89.90625 175.675781 C 84.753906 166.300781 75.992188 146.351562 66.429688 134.804688"/></g></g></g><g clip-path="url(#B)"><g clip-path="url(#C)"><g clip-path="url(#D)"><path fill="#235347" d="M 54.222656 181.339844 C 54.222656 181.339844 84.863281 188.441406 107.144531 213.3125 C 129.664062 238.449219 121.691406 255.0625 116.96875 258.503906 C 111.148438 262.746094 95.480469 261.941406 78.941406 225.640625 C 74.511719 215.90625 62.894531 193.566406 54.222656 181.339844"/></g></g></g><g clip-path="url(#E)"><g clip-path="url(#F)"><g clip-path="url(#G)"><path fill="#051F20" d="M 140.644531 377.464844 C 139.535156 373.152344 138.710938 368.882812 137.960938 364.5625 C 137.222656 360.246094 136.59375 355.917969 136.089844 351.578125 C 135.035156 342.902344 134.4375 334.179688 134.15625 325.449219 C 133.886719 316.722656 133.980469 307.984375 134.414062 299.265625 C 134.84375 290.542969 135.621094 281.839844 136.777344 273.191406 C 139.046875 255.878906 142.683594 238.75 147.703125 222.035156 L 148.632812 218.898438 C 148.945312 217.851562 149.304688 216.820312 149.636719 215.785156 L 151.675781 209.5625 L 153.890625 203.410156 L 155.003906 200.332031 C 155.382812 199.3125 155.800781 198.304688 156.199219 197.289062 L 158.605469 191.203125 C 159.429688 189.183594 160.3125 187.1875 161.160156 185.179688 L 162.441406 182.171875 L 163.789062 179.195312 C 164.695312 177.210938 165.570312 175.214844 166.503906 173.246094 C 173.933594 157.472656 182.355469 142.140625 192.167969 127.710938 C 201.933594 113.257812 213.015625 99.679688 225.421875 87.421875 C 237.804688 75.132812 251.457031 64.160156 265.953125 54.492188 C 280.441406 44.796875 295.75 36.382812 311.394531 28.734375 C 295.792969 36.480469 280.550781 44.988281 266.132812 54.761719 C 251.714844 64.511719 238.15625 75.550781 225.886719 87.882812 C 213.585938 100.191406 202.621094 113.792969 192.980469 128.257812 C 183.296875 142.699219 174.996094 158.03125 167.691406 173.796875 C 160.472656 189.605469 154.058594 205.800781 149.292969 222.503906 C 144.414062 239.164062 140.914062 256.222656 138.777344 273.4375 C 137.6875 282.046875 136.976562 290.699219 136.605469 299.363281 C 136.238281 308.027344 136.207031 316.703125 136.53125 325.367188 C 136.867188 334.027344 137.523438 342.675781 138.625 351.265625 C 139.152344 355.566406 139.808594 359.847656 140.566406 364.101562 C 141.332031 368.347656 142.191406 372.625 143.28125 376.730469 L 140.644531 377.464844"/></g></g></g><g clip-path="url(#H)"><g clip-path="url(#I)"><g clip-path="url(#J)"><path fill="#051F20" d="M 204.261719 24.792969 C 203.449219 31.882812 202.894531 38.996094 202.464844 46.117188 C 202.046875 53.230469 201.789062 60.363281 201.8125 67.484375 C 201.828125 74.609375 202 81.742188 202.695312 88.820312 C 203.382812 95.890625 204.378906 102.960938 206.402344 109.734375 L 205.089844 110.125 C 203.136719 103.175781 202.253906 96.035156 201.671875 88.910156 C 201.089844 81.777344 201.03125 74.625 201.125 67.480469 C 201.222656 60.34375 201.597656 53.210938 202.125 46.09375 C 202.667969 38.976562 203.335938 31.871094 204.261719 24.792969"/></g></g></g><g clip-path="url(#K)"><g clip-path="url(#L)"><g clip-path="url(#M)"><path fill="#051F20" d="M 142.015625 54.15625 C 146.828125 60.226562 151.421875 66.46875 155.90625 72.792969 C 160.367188 79.128906 164.71875 85.546875 168.8125 92.136719 C 172.886719 98.730469 176.875 105.402344 180.367188 112.339844 C 183.859375 119.273438 187.082031 126.375 189.382812 133.847656 L 188.070312 134.234375 C 185.914062 126.847656 182.820312 119.742188 179.445312 112.800781 C 176.074219 105.84375 172.199219 99.132812 168.230469 92.496094 C 164.242188 85.859375 159.992188 79.382812 155.621094 72.992188 C 151.238281 66.601562 146.734375 60.296875 142.015625 54.15625"/></g></g></g><g clip-path="url(#N)"><g clip-path="url(#O)"><g clip-path="url(#P)"><path fill="#051F20" d="M 104.691406 99.25 C 110.953125 104.746094 116.867188 110.625 122.5625 116.710938 C 128.265625 122.792969 133.679688 129.140625 138.84375 135.691406 C 141.46875 138.9375 143.910156 142.320312 146.390625 145.675781 C 147.605469 147.371094 148.765625 149.109375 149.957031 150.824219 L 151.734375 153.402344 L 153.417969 156.039062 L 156.777344 161.332031 L 159.929688 166.75 L 161.5 169.464844 L 162.949219 172.242188 L 165.855469 177.808594 L 164.007812 178.695312 L 161.242188 173.128906 L 159.859375 170.347656 L 158.359375 167.625 L 155.347656 162.183594 L 152.117188 156.859375 L 150.496094 154.203125 L 148.785156 151.601562 C 147.636719 149.875 146.515625 148.125 145.34375 146.410156 C 142.9375 143.023438 140.578125 139.605469 138.035156 136.316406 C 133.019531 129.6875 127.753906 123.242188 122.183594 117.058594 C 116.625 110.867188 110.835938 104.871094 104.691406 99.25"/></g></g></g><g clip-path="url(#Q)"><g clip-path="url(#R)"><g clip-path="url(#S)"><path fill="#051F20" d="M 80.335938 145.300781 C 87.074219 150.894531 93.542969 156.804688 99.84375 162.882812 C 106.140625 168.980469 112.222656 175.292969 118.085938 181.8125 C 123.902344 188.371094 129.441406 195.183594 134.660156 202.246094 C 139.773438 209.394531 144.5 216.828125 148.558594 224.667969 L 146.71875 225.574219 C 142.871094 217.785156 138.34375 210.332031 133.410156 203.136719 C 128.363281 196.023438 122.984375 189.136719 117.308594 182.488281 C 111.597656 175.875 105.648438 169.460938 99.484375 163.25 C 93.308594 157.054688 86.964844 151.023438 80.335938 145.300781"/></g></g></g><g clip-path="url(#T)"><g clip-path="url(#U)"><g clip-path="url(#V)"><path fill="#051F20" d="M 69.425781 193.625 C 76.117188 200.113281 82.523438 206.90625 88.742188 213.859375 C 94.957031 220.820312 100.941406 227.988281 106.710938 235.324219 C 112.515625 242.644531 118.003906 250.210938 123.246094 257.953125 L 127.128906 263.792969 L 130.839844 269.75 L 132.6875 272.734375 L 134.4375 275.777344 L 137.925781 281.875 L 135.507812 283.160156 L 132.203125 277.039062 L 130.542969 273.976562 L 128.78125 270.972656 L 125.25 264.972656 L 121.53125 259.078125 C 116.511719 251.257812 111.230469 243.589844 105.628906 236.15625 C 100.054688 228.703125 94.257812 221.40625 88.226562 214.308594 C 82.1875 207.214844 75.960938 200.277344 69.425781 193.625"/></g></g></g><g clip-path="url(#W)"><g clip-path="url(#X)"><g clip-path="url(#Y)"><path fill="#051F20" d="M 232.292969 226.238281 C 223.816406 229.207031 215.460938 232.511719 207.199219 236.015625 C 198.945312 239.542969 190.78125 243.277344 182.789062 247.351562 C 178.792969 249.375 174.835938 251.476562 170.941406 253.691406 C 167.042969 255.886719 163.195312 258.179688 159.449219 260.609375 C 151.933594 265.433594 144.738281 270.777344 138.375 276.933594 L 136.488281 274.960938 C 143.203125 268.78125 150.648438 263.558594 158.359375 258.875 C 162.207031 256.515625 166.140625 254.304688 170.121094 252.191406 C 174.09375 250.066406 178.125 248.054688 182.1875 246.121094 C 190.308594 242.242188 198.582031 238.707031 206.9375 235.382812 C 215.300781 232.085938 223.742188 228.992188 232.292969 226.238281"/></g></g></g><g clip-path="url(#Z)"><g clip-path="url(#aa)"><g clip-path="url(#ab)"><path fill="#051F20" d="M 249.4375 198.332031 C 240.886719 197.78125 232.308594 197.867188 223.761719 198.320312 C 215.21875 198.78125 206.703125 199.71875 198.277344 201.160156 C 189.859375 202.632812 181.542969 204.648438 173.476562 207.402344 C 169.449219 208.785156 165.5 210.390625 161.636719 212.160156 C 157.796875 213.976562 154.074219 216.015625 150.484375 218.269531 L 149.394531 216.535156 C 153.113281 214.300781 156.953125 212.292969 160.894531 210.527344 C 164.855469 208.804688 168.890625 207.261719 172.992188 205.941406 C 181.203125 203.324219 189.625 201.460938 198.113281 200.152344 C 206.609375 198.863281 215.167969 198.101562 223.742188 197.808594 C 232.308594 197.523438 240.898438 197.609375 249.4375 198.332031"/></g></g></g><g clip-path="url(#ac)"><g clip-path="url(#ad)"><g clip-path="url(#ae)"><path fill="#051F20" d="M 261.09375 147.382812 C 253.132812 148.175781 245.214844 149.308594 237.328125 150.613281 C 229.445312 151.945312 221.597656 153.464844 213.820312 155.304688 C 206.058594 157.175781 198.339844 159.253906 190.78125 161.8125 C 183.246094 164.414062 175.835938 167.398438 168.816406 171.128906 L 168.171875 169.925781 C 175.339844 166.246094 182.84375 163.347656 190.460938 160.835938 C 198.089844 158.375 205.863281 156.402344 213.671875 154.636719 C 221.488281 152.90625 229.371094 151.496094 237.273438 150.277344 C 245.1875 149.078125 253.125 148.0625 261.09375 147.382812"/></g></g></g><g clip-path="url(#af)"><g clip-path="url(#ag)"><g clip-path="url(#ah)"><path fill="#051F20" d="M 290.707031 104.035156 C 282.257812 105.042969 273.847656 106.34375 265.464844 107.789062 C 257.082031 109.246094 248.730469 110.871094 240.449219 112.804688 C 232.175781 114.746094 223.925781 116.835938 215.855469 119.488281 C 207.800781 122.132812 199.816406 125.109375 192.355469 129.082031 L 191.714844 127.875 C 199.347656 123.945312 207.417969 121.0625 215.550781 118.511719 C 223.6875 115.953125 231.988281 113.972656 240.300781 112.140625 C 248.621094 110.308594 257.003906 108.800781 265.40625 107.449219 C 273.8125 106.117188 282.246094 104.933594 290.707031 104.035156"/></g></g></g></svg>